<svg xmlns="http://www.w3.org/2000/svg" viewBox="0 0 25.88 25.88"><defs><style>.cls-1{fill:#eee;}</style></defs><title>Recurso 4</title><g id="Capa_2" data-name="Capa 2"><g id="Pantalla_3" data-name="Pantalla 3"><path class="cls-1" d="M12.94,0A12.94,12.94,0,1,0,25.88,12.94,12.94,12.94,0,0,0,12.94,0Zm7.3,14.37a.63.63,0,0,1-.63.63H15.24v4.83c-.21.34-.49.62-.84.17H11.48c-.35.45-1.24-.17-1.24-.17V15H5.87a.63.63,0,0,1-.63-.63V11.63A.63.63,0,0,1,5.87,11h5.37V6.63A.63.63,0,0,1,11.87,6h2.74a.63.63,0,0,1,.63.63V11h4.37a.63.63,0,0,1,.63.63Z"/></g></g></svg>