<svg height="512" viewBox="0 0 128 128" width="512" xmlns="http://www.w3.org/2000/svg"><g><path d="m93.219 50.937a12.33 12.33 0 0 0 -8.911 3.8 12.253 12.253 0 0 0 -9.138.378 12.331 12.331 0 0 0 -16.708 1.9 5.992 5.992 0 0 0 -8.713 3.385c-.225-.012-.448-.034-.676-.034a12.375 12.375 0 1 0 12.064 15.1 12.317 12.317 0 0 0 11.756.9 12.329 12.329 0 0 0 16.237-1.385 12.37 12.37 0 1 0 4.089-24.044z" fill="#eaeaf0"/><path d="m86.292 108.333h10.02l-4.02 13.167h-6z" fill="#fdd82e"/><path d="m41.708 108.333h-10.02l4.02 13.167h6z" fill="#fdd82e"/><path d="m115.5 66.22v21.92a24.006 24.006 0 0 1 -24 24h-55a24.006 24.006 0 0 1 -24-24v-21.92c12.53 2.58 30.96 4.2 51.5 4.2s38.98-1.62 51.5-4.2z" fill="#fd637b"/><path d="m107.909 97.285a1.751 1.751 0 0 1 -1.594-2.472 16.056 16.056 0 0 0 1.435-6.673 1.75 1.75 0 1 1 3.5 0 19.552 19.552 0 0 1 -1.745 8.116 1.751 1.751 0 0 1 -1.596 1.029z" fill="#da506a"/><path d="m121.5 65.553a2.988 2.988 0 0 1 -2.265 2.909c-12.422 3.057-32.542 5.038-55.235 5.038s-42.8-1.981-55.234-5.038a2.986 2.986 0 0 1 -2.266-2.909 2.99 2.99 0 0 1 3.7-2.913c12.136 3.008 32.217 4.86 53.8 4.86s41.664-1.852 53.8-4.86a2.99 2.99 0 0 1 3.7 2.913z" fill="#fdd82e"/><g fill="#eaeaf0"><circle cx="50.298" cy="12.5" r="6"/><circle cx="73.548" cy="26.5" r="4.5"/><circle cx="53.298" cy="39.308" r="3"/></g></g></svg>