<svg id="Capa_1" enable-background="new 0 0 512 512" height="512" viewBox="0 0 512 512" width="512" xmlns="http://www.w3.org/2000/svg"><g><circle cx="232.144" cy="67.655" fill="#eab14d" r="43.419"/><path d="m300.442 443.72c0 6.995-1.051 13.743-3.008 20.099-8.582 27.897-34.552 48.181-65.272 48.181s-56.691-20.284-65.272-48.182c-1.957-6.356-3.008-13.104-3.008-20.099 0-37.715 30.565-68.291 68.28-68.291s68.28 30.577 68.28 68.292z" fill="#f4dd45"/><path d="m256.607 507.488c-7.582 2.915-15.834 4.512-24.446 4.512-37.704 0-68.28-30.576-68.28-68.28 0-37.715 30.576-68.291 68.28-68.291 8.612 0 16.864 1.597 24.446 4.512-25.651 9.818-43.855 34.676-43.855 63.778 0 29.093 18.203 53.951 43.855 63.769z" fill="#eab14d"/><path d="m444.818 348.586h-425.313c32.839 0 54.18-20.885 63.273-51.188 3.329-11.118 5.016-23.497 5.016-36.594 0-48.782 17.557-193.15 144.367-193.15s144.367 144.368 144.367 193.15c0 13.098 1.687 25.476 5.016 36.594 9.094 30.303 30.449 51.188 63.274 51.188z" fill="#f4dd45"/><g fill="#eab14d"><path d="m232.166 67.654c-65.738 0-74.846 144.368-74.846 193.135 0 48.782-12.13 87.797-35.391 87.797h-102.419c44.866 0 68.275-39.014 68.275-87.782 0-48.782 17.571-193.15 144.381-193.15z"/><path d="m444.818 348.586h-425.313c32.839 0 54.18-20.885 63.273-51.188h298.767c9.093 30.303 30.448 51.188 63.273 51.188z"/><path d="m300.442 443.72c0 6.995-1.051 13.743-3.008 20.099h-130.545c-1.957-6.356-3.008-13.104-3.008-20.099 0-37.715 30.565-68.291 68.28-68.291s68.281 30.576 68.281 68.291z"/></g><path d="m406.774 328.61h-349.221c-31.786 0-57.553 25.768-57.553 57.553 0 31.786 25.767 57.553 57.553 57.553h349.221c31.786 0 57.553-25.767 57.553-57.553 0-31.785-25.768-57.553-57.553-57.553z" fill="#f4dd45"/><path d="m130.008 426.865c10.414 10.414 24.817 16.852 40.701 16.852h-113.156c-15.899 0-30.273-6.439-40.701-16.852-10.413-10.414-16.852-24.802-16.852-40.701 0-31.783 25.77-57.553 57.553-57.553h113.156c-31.783 0-57.554 25.77-57.554 57.553.001 15.899 6.44 30.287 16.853 40.701z" fill="#eab14d"/><circle cx="398.255" cy="113.745" fill="#dd636e" r="113.745"/><path d="m417.446 225.869c-6.233 1.061-12.64 1.617-19.182 1.617-62.82 0-113.753-50.922-113.753-113.742s50.932-113.742 113.753-113.742c6.542 0 12.949.556 19.182 1.617-53.683 9.107-94.56 55.846-94.56 112.125s40.877 103.019 94.56 112.125z" fill="#c63d4f"/><g><path d="m394.998 187.942c-26.497 0-28.338-.614-29.377-.96-2.707-.902-4.722-2.924-5.529-5.546-1.475-4.794.492-7.369 8.771-18.209 7.158-9.373 20.482-26.82 42.795-58.7 7.115-10.165 11.698-19.381 13.629-27.4l.576-4.507c-.247-15.316-12.785-27.7-28.159-27.7-13.43 0-25.051 9.545-27.635 22.695-.822 4.187-4.88 6.916-9.07 6.092-4.187-.822-6.915-4.884-6.093-9.071 4.003-20.379 22.002-35.17 42.798-35.17 24.049 0 43.616 19.566 43.616 43.615 0 .328-.021.655-.062.981l-.694 5.425c-.033.257-.078.512-.137.764-2.327 10.04-7.746 21.188-16.109 33.135-22.354 31.939-35.777 49.532-43.036 59.038 13.713.123 36.922-.013 58.16-.28.032-.001.065-.001.099-.001 4.222 0 7.67 3.395 7.723 7.629.054 4.267-3.361 7.769-7.628 7.823-19.748.251-34.132.347-44.638.347zm-25.42-15.853c.001.001.001.001.001.001s0 0-.001-.001z" fill="#dfeaef"/></g><g fill="#dfeaef"><path d="m107.003 71.429c-1.977 0-3.955-.754-5.463-2.263l-29.737-29.736c-3.018-3.017-3.018-7.909 0-10.927 3.017-3.018 7.909-3.018 10.927 0l29.736 29.736c3.018 3.017 3.018 7.909 0 10.927-1.509 1.509-3.486 2.263-5.463 2.263z"/><g><path d="m128.772 58.118c-3.688 0-6.952-2.649-7.604-6.407l-5.679-32.73c-.729-4.204 2.088-8.204 6.292-8.933 4.201-.728 8.204 2.088 8.934 6.292l5.679 32.73c.729 4.204-2.088 8.204-6.292 8.933-.447.077-.892.115-1.33.115z"/><path d="m93.699 93.209c-.439 0-.883-.037-1.33-.115l-32.73-5.679c-4.204-.73-7.021-4.729-6.292-8.934.729-4.204 4.727-7.02 8.934-6.292l32.73 5.679c4.204.73 7.021 4.729 6.292 8.934-.652 3.758-3.916 6.407-7.604 6.407z"/></g></g></g></svg>