<svg id="Capa_1" enable-background="new 0 0 512 512" height="512" viewBox="0 0 512 512" width="512" xmlns="http://www.w3.org/2000/svg"><g><path d="m91.656 185.31c3.035-.479 6.15-.743 9.333-.743 30.3 0 51.772 22.621 51.772 50.525l3.091 62.764c0-11.171 9.14-17.22 20.311-17.22h159.676c11.171 0 20.311 6.049 20.311 17.22l3.091-62.764c0-27.904 21.472-50.525 51.772-50.525 3.183 0 6.298.264 9.333.743l11.357-73.555c3.601-22.34-11.399-43.207-33.624-47.461-14.57-2.789-30.644-9.667-44.072-24.757-10.684-12.007-24.261-20.579-37.88-26.691-38.166-17.129-82.086-17.129-120.252 0-13.619 6.112-27.196 14.685-37.88 26.691-13.428 15.09-29.501 21.968-44.072 24.757-22.225 4.254-37.224 25.12-33.624 47.461z" fill="#ff8088"/><path d="m152.38 102.804-4.861-31.483c-1.45-8.998.121-17.755 3.963-25.286-11.933 10.631-25.277 15.91-37.559 18.261-22.225 4.254-37.224 25.12-33.624 47.461l11.357 73.555c3.035-.479 6.149-.743 9.333-.743 27.999 0 48.445 19.321 51.391 44.272z" fill="#ff646f"/><path d="m123.968 189.214c18.818 8.008 28.793 25.533 28.793 45.879l3.091 62.764c0-11.171 9.14-17.22 20.311-17.22h159.676c11.171 0 20.311 6.049 20.311 17.22l3.091-62.764c0-20.345 9.974-37.87 28.792-45.878l13.011-83.818c.769-4.769-2.472-9.215-7.23-10.049-24.92-4.367-46.484-16.26-63.174-35.016-6.569-7.382-15.754-13.753-27.301-18.939-30.048-13.493-64.609-13.495-94.659-.008-11.556 5.186-20.746 11.561-27.318 18.946-16.691 18.757-38.255 30.65-63.175 35.017-4.758.834-7.999 5.28-7.23 10.049z" fill="#ff646f"/><g><g><g><path d="m191.607 229.803c0-17.589-6.34-33.233-18.448-43.254-6.872-5.687-11.38-13.727-12.644-22.556l-10.712-74.818c-.233-1.571-.093-3.107.344-4.513-9.856 5.091-20.552 8.686-31.961 10.685-4.758.834-7.999 5.279-7.23 10.049l13.011 83.818c18.819 8.008 28.793 25.533 28.793 45.878l3.091 62.764c0-11.171 9.14-17.22 20.311-17.22h17.754z" fill="#ff4755"/></g></g></g><path d="m374.109 441.397 13.319 60.506c2.342 14.296 22.958 13.043 23.605-1.435l1.62-59.072c-22.738.001-24.306.001-38.544.001z" fill="#eee1dd"/><path d="m137.891 441.397-13.319 60.506c-2.342 14.296-22.958 13.043-23.605-1.435l-1.62-59.072c22.738.001 24.306.001 38.544.001z" fill="#eee1dd"/><path d="m402.881 501.904-13.319-60.506c-4.722 0-8.636 0-15.453 0l13.319 60.506c1.708 10.426 13.129 12.573 19.442 7.36-1.973-1.671-3.457-4.109-3.989-7.36z" fill="#e1d3ce"/><path d="m116.42 500.469-1.62-59.072c-3.891 0-8.747 0-15.453 0l1.62 59.072c.5 11.185 12.913 14.468 19.616 8.795-2.343-1.935-3.988-4.876-4.163-8.795z" fill="#e1d3ce"/><path d="m427.779 381.595h-343.557c-6.735 0-12.246 6.541-12.246 13.276v35.376c0 6.735 5.511 12.246 12.246 12.246h343.557c6.735 0 12.246-5.511 12.246-12.246v-35.376c-.001-6.735-5.511-13.276-12.246-13.276z" fill="#ff646f"/><path d="m118.619 430.247v-35.376c0-6.735 5.511-13.276 12.246-13.276h-46.643c-6.735 0-12.246 6.541-12.246 13.276v35.376c0 6.735 5.51 12.246 12.246 12.246h46.643c-6.735-.001-12.246-5.511-12.246-12.246z" fill="#ff4755"/><path d="m411.011 181.091c-30.464 0-55.249 22.839-55.249 50.911v81.911c0 .213.173.386.386.386h26.71c.213 0 .386-.173.386-.386v-67.802c0-18.293 14.08-32.623 32.054-32.623 17.675 0 32.055 14.379 32.055 32.055 0 10.832-5.413 20.854-14.479 26.81-2.602 1.709-4.406 4.393-5.078 7.557-.029.134.016.273.117.365.101.093.243.126.373.085 22.713-6.886 37.973-26.32 37.973-48.359.001-28.071-24.783-50.91-55.248-50.91z" fill="#ff9aa1"/><g><path d="m441.83 189.768c-8.809-5.477-19.416-8.677-30.819-8.677-30.464 0-55.249 22.839-55.249 50.911v81.911c0 .213.173.386.386.386h26.71c.213 0 .386-.173.386-.386v-67.802c0-18.293 14.08-32.623 32.054-32.623 1.939 0 3.835.183 5.679.514 4.087-9.925 11.439-18.381 20.853-24.234z" fill="#ff8088"/></g><path d="m100.989 181.091c-30.464 0-55.249 22.839-55.249 50.911 0 22.038 15.26 41.472 37.973 48.359.13.04.273.008.373-.085.101-.093.145-.231.117-.365-.672-3.164-2.475-5.848-5.078-7.558-9.066-5.955-14.479-15.978-14.479-26.81 0-17.675 14.379-32.055 32.055-32.055 17.975 0 32.055 14.33 32.055 32.623v67.802c0 .213.173.386.386.386h26.709c.213 0 .386-.173.386-.386v-81.911c0-28.072-24.784-50.911-55.248-50.911z" fill="#ff9aa1"/><g><path d="m96.701 213.489c4.367 0 8.5.852 12.261 2.395 3.982-10.961 11.901-20.268 22.21-26.491-8.684-5.241-19.05-8.302-30.184-8.302-30.464 0-55.249 22.839-55.249 50.911 0 22.038 15.26 41.472 37.973 48.359.13.04.273.008.373-.085.101-.093.145-.231.117-.365-.672-3.164-2.475-5.848-5.078-7.558-9.066-5.955-14.479-15.978-14.479-26.81.001-17.675 14.381-32.054 32.056-32.054z" fill="#ff8088"/></g><path d="m357.179 315.974v-21.208c0-11.171-9.14-20.311-20.311-20.311h-161.736c-11.171 0-20.311 9.14-20.311 20.311v21.208z" fill="#ff9aa1"/><path d="m208.442 274.455h-33.31c-11.171 0-20.311 9.14-20.311 20.311v21.208h33.31v-21.208c0-11.171 9.14-20.311 20.311-20.311z" fill="#ff8088"/><g><g fill="#ff9aa1"><path d="m186.499 151.353h-.467v-.467c0-4.267-3.459-7.726-7.726-7.726s-7.726 3.459-7.726 7.726v.467h-.467c-4.267 0-7.726 3.459-7.726 7.726s3.459 7.726 7.726 7.726h.467v.467c0 4.267 3.459 7.726 7.726 7.726s7.726-3.459 7.726-7.726v-.467h.467c4.267 0 7.726-3.459 7.726-7.726s-3.459-7.726-7.726-7.726z"/><path d="m264.193 151.353h-.467v-.467c0-4.267-3.459-7.726-7.726-7.726s-7.726 3.459-7.726 7.726v.467h-.467c-4.267 0-7.726 3.459-7.726 7.726s3.459 7.726 7.726 7.726h.467v.467c0 4.267 3.459 7.726 7.726 7.726s7.726-3.459 7.726-7.726v-.467h.467c4.267 0 7.726-3.459 7.726-7.726s-3.458-7.726-7.726-7.726z"/><path d="m341.887 151.353h-.467v-.467c0-4.267-3.459-7.726-7.726-7.726s-7.726 3.459-7.726 7.726v.467h-.467c-4.267 0-7.726 3.459-7.726 7.726s3.459 7.726 7.726 7.726h.467v.467c0 4.267 3.459 7.726 7.726 7.726s7.726-3.459 7.726-7.726v-.467h.467c4.267 0 7.726-3.459 7.726-7.726s-3.458-7.726-7.726-7.726z"/><path d="m225.346 212.477h-.467v-.467c0-4.267-3.459-7.726-7.726-7.726s-7.726 3.459-7.726 7.726v.467h-.467c-4.267 0-7.726 3.459-7.726 7.726s3.459 7.726 7.726 7.726h.467v.467c0 4.267 3.459 7.726 7.726 7.726s7.726-3.459 7.726-7.726v-.467h.467c4.267 0 7.726-3.459 7.726-7.726s-3.459-7.726-7.726-7.726z"/><path d="m303.04 212.477h-.467v-.467c0-4.267-3.459-7.726-7.726-7.726s-7.726 3.459-7.726 7.726v.467h-.466c-4.267 0-7.726 3.459-7.726 7.726s3.459 7.726 7.726 7.726h.466v.467c0 4.267 3.459 7.726 7.726 7.726s7.726-3.459 7.726-7.726v-.467h.467c4.267 0 7.726-3.459 7.726-7.726s-3.459-7.726-7.726-7.726z"/><path d="m225.346 90.228h-.467v-.467c0-4.267-3.459-7.726-7.726-7.726s-7.726 3.459-7.726 7.726v.467h-.467c-4.267 0-7.726 3.459-7.726 7.726s3.459 7.726 7.726 7.726h.467v.467c0 4.267 3.459 7.726 7.726 7.726s7.726-3.459 7.726-7.726v-.467h.467c4.267 0 7.726-3.459 7.726-7.726s-3.459-7.726-7.726-7.726z"/><path d="m303.04 90.228h-.467v-.467c0-4.267-3.459-7.726-7.726-7.726s-7.726 3.459-7.726 7.726v.467h-.466c-4.267 0-7.726 3.459-7.726 7.726s3.459 7.726 7.726 7.726h.466v.467c0 4.267 3.459 7.726 7.726 7.726s7.726-3.459 7.726-7.726v-.467h.467c4.267 0 7.726-3.459 7.726-7.726s-3.459-7.726-7.726-7.726z"/></g></g><path d="m415.299 212.716c-18.408 0-32.827 14.669-32.827 33.395v67.802c0 .213.173.386.386.386h44.92l.115.006c.102 0 .199-.04.272-.111.073-.073.115-.172.115-.275v-31.407c0-3.892 1.876-7.449 5.02-9.514 9.284-6.099 14.827-16.362 14.827-27.456-.001-18.099-14.727-32.826-32.828-32.826z" fill="#ff8088"/><g><g fill="#ff646f"><path d="m407.197 313.914v-67.802c0-14.228 8.328-26.106 20.401-30.996-3.801-1.542-7.951-2.4-12.299-2.4-18.408 0-32.827 14.669-32.827 33.395v67.802c0 .213.173.386.386.386h24.725c-.213.001-.386-.172-.386-.385z"/><path d="m427.779 314.3.115.006c.011 0 .02-.005.031-.006z"/></g></g><path d="m96.701 212.716c-18.101 0-32.827 14.727-32.827 32.827 0 11.093 5.543 21.357 14.827 27.456 3.143 2.065 5.02 5.621 5.02 9.514v31.407c0 .213.288.38.501.38h44.92c.213 0 .386-.173.386-.386v-67.802c0-18.726-14.42-33.396-32.827-33.396z" fill="#ff8088"/><path d="m110.429 313.92v-31.407c0-3.892-1.876-7.449-5.02-9.514-9.284-6.099-14.827-16.362-14.827-27.456 0-13.371 8.041-24.893 19.537-30.006-4.078-1.813-8.61-2.822-13.418-2.822-18.101 0-32.827 14.727-32.827 32.827 0 11.093 5.543 21.357 14.827 27.456 3.143 2.065 5.02 5.621 5.02 9.514v31.407c0 .213.288.38.501.38h26.709c-.214.001-.502-.166-.502-.379z" fill="#ff646f"/><path d="m427.779 313.914h-343.557c-6.735 0-12.246 5.511-12.246 12.246v44.22c0 6.735 5.511 12.246 12.246 12.246h343.557c6.735 0 12.246-5.51 12.246-12.246v-44.22c-.001-6.736-5.511-12.246-12.246-12.246z" fill="#ff8088"/><path d="m118.619 370.379v-44.22c0-6.735 5.511-12.246 12.246-12.246h-46.643c-6.735 0-12.246 5.511-12.246 12.246v44.22c0 6.735 5.51 12.246 12.246 12.246h46.643c-6.735 0-12.246-5.511-12.246-12.246z" fill="#ff646f"/></g></svg>