<svg id="flat" height="512" viewBox="0 0 512 512" width="512" xmlns="http://www.w3.org/2000/svg"><path d="m224 160v-104a32 32 0 0 1 32-32h128a32 32 0 0 1 32 32v104z" fill="#f5c99d"/><path d="m416 160v-104a32 32 0 0 0 -32-32h-40a32 32 0 0 1 32 32v104z" fill="#deae7e"/><path d="m184 160h240a64 64 0 0 1 64 64v232h-303.99993z" fill="#eda600"/><path d="m216 456v-232a64 64 0 0 1 64-64h-192a64 64 0 0 0 -64 64v232z" fill="#f6bb00"/><path d="m80 200h96v32h-96a16 16 0 0 1 -16-16 16 16 0 0 1 16-16z" fill="#4d6378"/><path d="m104 232h32v80h-32z" fill="#de9400"/><g fill="#4d6378"><path d="m160 384a40.01649 40.01649 0 0 1 -32 39.2002 40.4099 40.4099 0 0 1 -16 0 40.01025 40.01025 0 0 1 0-78.4004 40.4099 40.4099 0 0 1 16 0 40.01649 40.01649 0 0 1 32 39.2002z"/><path d="m80 488h-24l-8-32h40z"/><path d="m184 488h-24l-8-32h40z"/><path d="m352 488h-24l-8-32h40z"/><path d="m456 488h-24l-8-32h40z"/></g><path d="m112 160v-56a32 32 0 0 1 32-32h128a32 32 0 0 1 32 32v56z" fill="#f5c99d"/><path d="m176 232h-16a16 16 0 0 1 -16-16 16 16 0 0 1 16-16h16z" fill="#34475c"/><path d="m128 344.7998v78.4004a40.4099 40.4099 0 0 1 -16 0v-78.4004a40.4099 40.4099 0 0 1 16 0z" fill="#34475c"/><path d="m304 160v-56a32 32 0 0 0 -32-32h-40a32 32 0 0 1 32 32v56z" fill="#deae7e"/></svg>