<svg id="line" height="512" viewBox="0 0 64 64" width="512" xmlns="http://www.w3.org/2000/svg"><path d="m62.707 34.293-12-12a1 1 0 0 0 -.707-.293h-5a1 1 0 0 0 -1 1 6 6 0 0 1 -12 0 1 1 0 0 0 -1-1h-5a1 1 0 0 0 -.707.293l-12 12a1 1 0 0 0 0 1.414l8 8a1 1 0 0 0 1.414 0l2.293-2.293v17.586a3 3 0 0 0 3 3h20a3 3 0 0 0 3-3v-17.586l2.293 2.293a1 1 0 0 0 1.414 0l8-8a1 1 0 0 0 0-1.414z" fill="#c4a2fc"/><g fill="#151a6a"><path d="m48 1h-44a3 3 0 0 0 -3 3v44a3 3 0 0 0 3 3h44a3 3 0 0 0 3-3v-44a3 3 0 0 0 -3-3zm-44 2h44a1 1 0 0 1 1 1v9h-46v-9a1 1 0 0 1 1-1zm44 46h-44a1 1 0 0 1 -1-1v-33h46v33a1 1 0 0 1 -1 1z"/><path d="m6 9h4a1 1 0 0 0 0-2h-4a1 1 0 0 0 0 2z"/><path d="m14 9h4a1 1 0 0 0 0-2h-4a1 1 0 0 0 0 2z"/><path d="m22 9h4a1 1 0 0 0 0-2h-4a1 1 0 0 0 0 2z"/><path d="m44 11a3 3 0 1 0 -3-3 3 3 0 0 0 3 3zm0-4a1 1 0 1 1 -1 1 1 1 0 0 1 1-1z"/><path d="m26 17a15 15 0 1 0 15 15 15.017 15.017 0 0 0 -15-15zm0 28a13 13 0 1 1 13-13 13.015 13.015 0 0 1 -13 13z"/><path d="m26 21a11 11 0 1 0 11 11 11.013 11.013 0 0 0 -11-11zm0 2a9.008 9.008 0 0 1 8.731 6.855l-2.024 2.024a1.021 1.021 0 0 1 -1.414 0l-1.171-1.172a3.073 3.073 0 0 0 -4.243 0l-1.172 1.172a1.021 1.021 0 0 1 -1.414 0l-1.171-1.172a3.073 3.073 0 0 0 -4.243 0l-.857.857a9 9 0 0 1 8.978-8.564zm0 18a9.008 9.008 0 0 1 -8.731-6.855l2.024-2.024a1.021 1.021 0 0 1 1.414 0l1.171 1.172a3.073 3.073 0 0 0 4.243 0l1.172-1.172a1.021 1.021 0 0 1 1.414 0l1.171 1.172a3.073 3.073 0 0 0 4.243 0l.857-.857a9 9 0 0 1 -8.978 8.564z"/></g></svg>